# xmcd
#
# Track frame offsets: 
#        150
#        87862
#        115000
#        136717
#
# Disc length: 2300 seconds
#
# Revision: 2
# Processed by: cddbd v1.5.1PL2 Copyright (c) Steve Scherf et al.
# Submitted via: ExactAudioCopy v0.95b2
#
DISCID=2508fa04
DTITLE=Dezo Ursiny, Juraj Lihosit - Provisorium
DYEAR=1973
DGENRE=
TTITLE0=Christmas Time/Cas Vanoc
TTITLE1=Looking For The Place To Spend Next Summer/Hledam misto, kde s
TTITLE1=travim pristi leto
TTITLE2=Apple Tree In Winter/Jablon v zime
TTITLE3=I Have Found/Pochopil jsem
EXTD=
EXTT0=
EXTT1=
EXTT2=
EXTT3=
PLAYORDER=
